<?xml version="1.0" standalone="no"?>
<!DOCTYPE svg PUBLIC "-//W3C//DTD SVG 20010904//EN"
 "http://www.w3.org/TR/2001/REC-SVG-20010904/DTD/svg10.dtd">
<svg version="1.0" xmlns="http://www.w3.org/2000/svg"
 width="192.000000pt" height="192.000000pt" viewBox="0 0 192.000000 192.000000"
 preserveAspectRatio="xMidYMid meet">
<metadata>
Created by potrace 1.14, written by Peter Selinger 2001-2017
</metadata>
<g transform="translate(0.000000,192.000000) scale(0.100000,-0.100000)"
fill="#000000" stroke="none">
<path d="M625 1897 c13 -21 75 -179 75 -192 0 -3 -108 -5 -240 -5 l-240 0 0
-740 0 -740 258 2 257 3 3 238 2 237 79 0 80 0 -40 -117 c-21 -64 -39 -118
-39 -120 0 -1 33 -3 74 -5 l74 -3 -50 -125 c-63 -158 -118 -308 -118 -320 0
-6 213 -10 560 -10 l560 0 0 960 0 960 -655 0 -655 0 15 -23z m75 -457 l0
-220 -220 0 -220 0 0 220 0 220 220 0 220 0 0 -220z m69 -162 c1 -45 -2 -58
-14 -58 -13 0 -15 22 -14 143 l2 142 13 -85 c7 -47 13 -111 13 -142z m-69
-318 l0 -220 -220 0 -220 0 0 220 0 220 220 0 220 0 0 -220z m76 73 c-3 -82
-13 -177 -20 -213 -13 -63 -14 -58 -15 148 -1 211 -1 212 21 212 21 0 21 -1
14 -147z m200 -70 c-4 -16 -19 -71 -35 -123 l-28 -95 -77 -3 c-42 -2 -76 0
-76 4 0 18 99 149 145 193 61 58 79 64 71 24z m-276 -483 l0 -220 -220 0 -220
0 0 220 0 220 220 0 220 0 0 -220z"/>
</g>
</svg>
